<svg width="512" height="512" viewBox="0 0 512 512" fill="none" xmlns="http://www.w3.org/2000/svg">
<path d="M512 256C512 397.385 397.385 512 256 512C114.615 512 0 397.385 0 256C0 114.615 114.615 0 256 0C397.385 0 512 114.615 512 256Z" fill="#31AE3E"/>
<path d="M235.916 379L239.347 284.66L159.584 335.26L139 299.24L223.051 255.5L139 211.76L159.584 175.74L239.347 226.34L235.916 132H277.084L273.653 226.34L353.416 175.74L374 211.76L289.949 255.5L374 299.24L353.416 335.26L273.653 284.66L277.084 379H235.916Z" fill="white"/>
</svg>
